HIERARCHY
ROOT Hips
{
 OFFSET 0.000000 0.000000 0.000000
 CHANNELS 6 Xposition Yposition Zposition Yrotation Xrotation Zrotation
 JOINT Chest
 {
  OFFSET 0.000000 9.585900 0.002600
  CHANNELS 3 Yrotation Xrotation Zrotation
  JOINT Chest2
  {
   OFFSET 0.000000 9.601200 -0.005300
   CHANNELS 3 Yrotation Xrotation Zrotation
   JOINT Chest3
   {
    OFFSET 0.000000 9.561800 0.000000
    CHANNELS 3 Yrotation Xrotation Zrotation
    JOINT Chest4
    {
     OFFSET 0.000000 9.552100 0.000000
     CHANNELS 3 Yrotation Xrotation Zrotation
     JOINT Neck
     {
      OFFSET 0.000000 14.453000 0.000000
      CHANNELS 3 Yrotation Xrotation Zrotation
      JOINT Head
      {
       OFFSET 0.000000 8.936500 -0.011300
       CHANNELS 3 Yrotation Xrotation Zrotation
       End Site
       {
        OFFSET 0.000000 17.073600 -0.006000
       }
      }
     }
     JOINT RightCollar
     {
      OFFSET -2.921100 9.558500 0.000000
      CHANNELS 3 Yrotation Xrotation Zrotation
      JOINT RightShoulder
      {
       OFFSET -13.519700 0.000000 0.000000
       CHANNELS 3 Yrotation Xrotation Zrotation
       JOINT RightElbow
       {
        OFFSET 0.000000 -29.696600 0.000000
        CHANNELS 3 Yrotation Xrotation Zrotation
        JOINT RightWrist
        {
         OFFSET 0.000000 -24.004700 0.000000
         CHANNELS 3 Yrotation Xrotation Zrotation
         End Site
         {
          OFFSET 0.000000 -17.728500 0.000000
         }
        }
       }
      }
     }
     JOINT LeftCollar
     {
      OFFSET 2.921100 9.558500 0.000000
      CHANNELS 3 Yrotation Xrotation Zrotation
      JOINT LeftShoulder
      {
       OFFSET 13.519700 0.000000 0.000000
       CHANNELS 3 Yrotation Xrotation Zrotation
       JOINT LeftElbow
       {
        OFFSET 0.000000 -29.696600 0.000000
        CHANNELS 3 Yrotation Xrotation Zrotation
        JOINT LeftWrist
        {
         OFFSET 0.000000 -24.004700 0.000000
         CHANNELS 3 Yrotation Xrotation Zrotation
         End Site
         {
          OFFSET 0.000000 -17.728500 0.000000
         }
        }
       }
      }
     }
    }
   }
  }
 }
 JOINT RightHip
 {
  OFFSET -7.771700 -0.012900 -0.001300
  CHANNELS 3 Yrotation Xrotation Zrotation
  JOINT RightKnee
  {
   OFFSET 0.000000 -40.869800 0.001200
   CHANNELS 3 Yrotation Xrotation Zrotation
   JOINT RightAnkle
   {
    OFFSET 0.000000 -39.717900 0.002100
    CHANNELS 3 Yrotation Xrotation Zrotation
    JOINT RightToe
    {
     OFFSET 0.000000 -4.965400 11.033500
     CHANNELS 3 Yrotation Xrotation Zrotation
     End Site
     {
      OFFSET 0.000000 -1.423100 5.872300
     }
    }
   }
  }
 }
 JOINT LeftHip
 {
  OFFSET 7.771700 -0.012900 -0.001300
  CHANNELS 3 Yrotation Xrotation Zrotation
  JOINT LeftKnee
  {
   OFFSET 0.000000 -40.869800 0.001200
   CHANNELS 3 Yrotation Xrotation Zrotation
   JOINT LeftAnkle
   {
    OFFSET 0.000000 -39.717900 0.002100
    CHANNELS 3 Yrotation Xrotation Zrotation
    JOINT LeftToe
    {
     OFFSET 0.000000 -4.965400 11.033500
     CHANNELS 3 Yrotation Xrotation Zrotation
     End Site
     {
      OFFSET 0.000000 -1.423100 5.872300
     }
    }
   }
  }
 }
}
MOTION
Frames: 8
Frame Time: 0.008333
-242.180944 60.243581 -74.689315 161.028938 -26.805737 3.203120 4.448194 18.265278 1.535317 0.497616 2.128175 0.093660 0.828919 3.492885 0.172256 3.934490 15.839211 1.219911 -0.892355 15.415087 -0.752611 -0.758850 -9.560847 -0.582227 9.559209 6.563029 -4.159277 20.151453 -31.794475 -27.630685 23.954850 -41.998418 -9.895813 8.322219 1.685907 -27.168315 -13.854616 0.504638 -4.944193 -11.554566 -27.209979 21.218682 -68.851521 -38.769270 48.170499 -11.706377 8.867412 15.336762 -1.362880 -43.186306 3.591783 -22.819656 69.936248 -22.243754 -1.554871 -4.651020 -1.592425 -0.349467 0.073559 -0.197807 11.730874 -42.301845 -2.394179 26.328299 64.044014 26.002310 -16.438354 -13.299504 1.147573 0.542265 0.055435 0.236593
-242.166578 60.260859 -74.665038 161.023780 -26.835865 3.183595 4.446391 18.348684 1.537953 0.502442 2.106429 0.105759 0.821399 3.557406 0.163072 3.914272 15.895221 1.221818 -1.056639 15.114473 -0.629961 -0.956403 -9.875183 -0.417165 9.690835 6.423312 -4.451131 20.908769 -32.287933 -29.133293 21.588715 -41.183660 -7.127735 8.660282 2.184943 -24.351441 -14.248680 0.254110 -4.732081 -11.868607 -27.724439 22.319566 -68.851692 -38.731310 47.578433 -12.128609 8.946758 13.371627 -1.234908 -43.125730 3.495976 -22.667758 69.878696 -21.982391 -1.468824 -4.586013 -1.551443 -0.464581 0.057536 -0.247420 11.558856 -42.230765 -2.172969 26.241941 63.978404 25.772270 -16.570299 -13.321908 1.113442 0.653439 0.134864 0.294032
-242.167563 60.278320 -74.638948 160.982886 -26.850873 3.242136 4.459176 18.445990 1.463019 0.502176 2.128493 0.106118 0.823915 3.567627 0.167425 3.896551 15.955242 1.219071 -1.239410 14.793583 -0.481827 -1.178764 -10.208374 -0.221805 9.823921 6.218671 -4.766069 21.731641 -32.728913 -30.590171 19.120421 -40.184469 -4.558094 9.072232 2.740683 -20.676775 -14.666760 -0.054414 -4.493267 -12.359361 -28.181069 23.527297 -68.256649 -38.842360 46.601829 -12.556350 8.893832 11.011224 -1.029220 -43.100629 3.327931 -22.528735 69.842253 -21.751445 -1.457040 -4.511049 -1.525686 -0.508975 0.028681 -0.267169 11.552586 -42.143925 -2.111745 26.122077 63.877604 25.574164 -16.686432 -13.320783 1.085439 0.717694 0.200536 0.327663
-242.172381 60.297532 -74.612404 160.899329 -26.885630 3.316011 4.510437 18.556790 1.394505 0.499578 2.167566 0.098918 0.826978 3.577018 0.173545 3.879529 16.017913 1.212958 -1.438493 14.464228 -0.309279 -1.424033 -10.547687 0.002294 9.975593 5.971812 -5.099468 22.701998 -33.107819 -32.027982 16.477832 -38.977746 -2.243623 9.554696 3.358647 -16.227655 -15.088350 -0.413869 -4.246421 -13.044835 -28.582164 24.846399 -66.975580 -39.068746 45.172458 -13.003348 8.746161 8.181985 -0.799052 -43.066322 3.172446 -22.404326 69.810029 -21.544741 -1.451256 -4.402122 -1.509392 -0.546062 -0.024861 -0.277974 11.631209 -42.048007 -2.107812 26.025602 63.801860 25.451166 -16.705395 -13.304277 1.066705 0.714750 0.227362 0.337661
-242.189243 60.311543 -74.574071 160.888711 -26.858409 3.379062 4.483664 18.604809 1.295191 0.499568 2.186746 0.098511 0.839706 3.547920 0.186367 3.845837 16.141483 1.196838 -1.653124 14.139389 -0.114929 -1.691601 -10.879537 0.252679 10.157850 5.703303 -5.450068 23.896309 -33.396522 -33.502298 13.642365 -37.569894 -0.223737 10.085155 3.982147 -11.272326 -15.488764 -0.816363 -4.008032 -13.903135 -28.943674 26.258843 -64.918713 -39.395717 43.169730 -13.476814 8.560641 4.850817 -0.624887 -43.099236 2.994068 -22.288413 69.770596 -21.354755 -1.447211 -4.297515 -1.499609 -0.571584 -0.066867 -0.283554 11.715311 -42.004467 -2.206342 25.936036 63.656932 25.358387 -16.672030 -13.251169 1.046345 0.718784 0.273715 0.339631
-242.205716 60.327228 -74.536232 160.852555 -26.867474 3.435984 4.474317 18.687817 1.218700 0.498937 2.205877 0.098285 0.832363 3.608036 0.178008 3.831030 16.174493 1.196172 -1.882945 13.830004 0.099183 -1.981438 -11.193129 0.527790 10.378919 5.428874 -5.822316 25.296760 -33.601975 -35.041432 10.714973 -36.013117 1.475487 10.543942 4.503996 -6.185054 -15.846632 -1.253539 -3.784025 -14.874353 -29.311242 27.721259 -61.948786 -39.790364 40.374662 -13.981545 8.347452 1.083623 -0.484208 -43.085177 2.866971 -22.158861 69.714622 -21.176029 -1.443042 -4.199624 -1.495744 -0.591647 -0.095916 -0.286837 11.803533 -41.931986 -2.290491 25.866665 63.526721 25.296799 -16.574058 -13.200395 1.013066 0.716877 0.329555 0.343557
-242.219092 60.339852 -74.490263 160.851321 -26.863942 3.436412 4.435319 18.752917 1.185575 0.497609 2.224832 0.098512 0.822923 3.667228 0.172746 3.812134 16.207748 1.195639 -2.127606 13.543904 0.330351 -2.293527 -11.481333 0.825562 10.640066 5.158063 -6.217803 26.762011 -33.798929 -36.619082 7.880633 -34.402124 2.885744 10.827944 4.927694 -1.327900 -16.152246 -1.711429 -3.569167 -15.860358 -29.760692 29.174429 -57.927977 -40.174915 36.543097 -14.546727 8.076169 -2.952484 -0.496046 -43.073062 2.872731 -22.021761 69.633367 -21.055629 -1.454564 -4.112874 -1.500376 -0.589135 -0.106690 -0.280073 11.810749 -41.917990 -2.302356 25.800697 63.443978 25.225524 -16.503888 -13.127411 1.004671 0.705780 0.340438 0.335682
-242.232782 60.349713 -74.438990 160.869671 -26.854280 3.420993 4.398148 18.775982 1.176111 0.470655 2.276010 0.095350 0.820292 3.696936 0.174046 3.785320 16.270005 1.196287 -2.388007 13.286718 0.573856 -2.628332 -11.739094 1.141986 10.924422 4.895825 -6.634631 28.089263 -34.119072 -38.164330 5.365443 -32.837460 4.082292 10.930618 5.376013 3.024261 -16.417668 -2.174998 -3.352996 -16.755383 -30.364306 30.555278 -52.880870 -40.399846 31.589562 -15.189651 7.731368 -7.010316 -0.630638 -43.062167 2.989928 -21.923776 69.526018 -21.058422 -1.507625 -4.031175 -1.517015 -0.532236 -0.105847 -0.251724 11.792202 -41.916575 -2.299028 25.713960 63.362053 25.129912 -16.481673 -13.067139 1.009750 0.649654 0.365579 0.311835
